<?xml version="1.0" encoding="UTF-8" standalone="no"?>
<svg xmlns:dc="http://purl.org/dc/elements/1.1/"
   xmlns:cc="http://creativecommons.org/ns#"
   xmlns:rdf="http://www.w3.org/1999/02/22-rdf-syntax-ns#"
   xmlns:svg="http://www.w3.org/2000/svg"
   xmlns="http://www.w3.org/2000/svg"
   xmlns:xlink="http://www.w3.org/1999/xlink"
   xmlns:sodipodi="http://sodipodi.sourceforge.net/DTD/sodipodi-0.dtd"
   xmlns:inkscape="http://www.inkscape.org/namespaces/inkscape"
   id="svg2403"
   sodipodi:version="0.32"
   inkscape:version="0.46"
   width="541.47876"
   height="541.47876"
   xml:space="preserve"
   sodipodi:docname="United_States_(orthographic_projection) (1).svg"
   inkscape:output_extension="org.inkscape.output.svg.inkscape"
   version="1.0">

  <defs
     id="defs9561"/>
  <path
     style="fill:#d0d0d0;stroke:#000000"
     d="M 337.28598,98.12 L 337.51198,99.679 L 338.12898,102.568 L 334.46098,102.744 L 333.34798,102.794 L 333.14398,98.318 L 337.28598,98.12"
     id="Houston, MN"/>
  <path
     style="fill:#d0d0d0;stroke:#000000"
     d="M 329.90798,98.453 L 333.14398,98.318 L 333.34798,102.794 L 330.08398,102.933 L 326.64598,103.073 L 326.48298,98.76 L 329.90798,98.453"
     id="Fillmore, MN"/>
  <path
     style="fill:#d0d0d0;stroke:#000000"
     d="M 307.12998,40.938 L 307.04398,36.602 L 307.16498,36.553 L 307.39998,36.535 L 308.09398,36.544 L 308.24798,36.571 L 308.51298,36.715 L 308.59398,36.877 L 308.59898,36.963 L 308.60798,37.22 L 308.60798,37.225 L 308.66098,37.261 L 308.83798,37.306 L 309.68498,37.355 L 310.31998,37.346 L 312.15398,37.504 L 312.20898,37.549 L 312.31698,37.747 L 312.46098,38.149 L 312.47898,38.265 L 312.43398,38.599 L 312.37598,38.698 L 312.37598,38.757 L 312.40698,38.802 L 312.58798,38.933 L 312.91698,38.933 L 313.73198,38.906 L 314.74598,38.712 L 315.40898,38.482 L 315.46298,38.419 L 315.49398,38.275 L 315.49098,38.203 L 315.44898,38.117 L 315.40398,37.95 L 315.41898,37.891 L 316.41898,37.423 L 317.21198,37.193 L 317.62198,37.184 L 317.86498,37.4 L 318.17198,37.391 L 318.18998,37.391 L 318.65398,37.342 L 318.70298,40.06 L 318.72698,42.259 L 318.80198,44.49 L 318.88898,45.076 L 318.98698,46.248 L 319.00598,46.739 L 312.93398,46.811 L 312.94798,47.483 L 307.32798,47.604 L 307.12998,40.938"
     id="Koochiching, MN"/>
  <path
     style="fill:#d0d0d0;stroke:#000000"
     d="M 299.30898,32.974 L 300.76498,32.961 L 300.74798,30.595 L 300.73898,29.765 L 300.72998,28.436 L 300.72498,28.071 L 300.72498,28.057 L 302.40198,28.22 L 302.81598,28.467 L 303.54698,28.986 L 304.01498,31.374 L 304.23198,32.911 L 304.78098,35.733 L 305.18198,36.098 L 305.32098,36.224 L 305.89498,36.544 L 306.14198,36.68 L 306.15598,36.693 L 306.27798,36.702 L 306.71398,36.747 L 307.04398,36.602 L 307.12998,40.938 L 300.34198,41.042 L 300.31498,38.82 L 299.18298,38.825 L 299.16998,36.62 L 301.35098,36.602 L 301.31098,33.953 L 301.09898,34.173 L 300.90898,34.286 L 300.82398,34.322 L 300.15298,34.462 L 300.05398,34.462 L 299.90898,34.426 L 299.51198,34.182 L 299.32298,33.817 L 299.28698,33.195 L 299.30898,32.974"
     id="Lake of the Woods, MN"/>
  <path
     style="fill:#d0d0d0;stroke:#000000"
     d="M 299.30898,32.974 L 299.28698,33.195 L 299.32298,33.817 L 299.51198,34.182 L 299.90898,34.426 L 300.05398,34.462 L 300.15298,34.462 L 300.82398,34.322 L 300.90898,34.286 L 301.09898,34.173 L 301.31098,33.953 L 301.35098,36.602 L 299.16998,36.62 L 299.18298,38.825 L 296.93398,38.856 L 290.13798,38.784 L 290.13298,37.81 L 289.99698,36.576 L 290.01098,32.974 L 299.30898,32.974"
     id="Roseau, MN"/>
  <path
     style="fill:#d0d0d0;stroke:#000000"
     d="M 282.93098,32.902 L 290.01098,32.974 L 289.99698,36.576 L 290.13298,37.81 L 290.13798,38.784 L 283.42598,38.734 L 284.05798,36.981 L 283.67898,36.12 L 283.51198,35.624 L 282.88998,33.592 L 282.83998,33.322 L 282.84998,33.132 L 282.88998,32.943 L 282.93098,32.902"
     id="Kittson, MN"/>
  <path
     style="fill:#d0d0d0;stroke:#000000"
     d="M 296.03298,46.563 L 296.03798,47.681 L 294.91998,48.807 L 290.41298,48.807 L 289.27698,47.686 L 289.27698,46.203 L 296.02798,46.198 L 296.03298,46.563"
     id="Red Lake, MN"/>
  <path
     style="fill:#d0d0d0;stroke:#000000"
     d="M 297.02898,43.525 L 297.13298,45.477 L 297.14198,46.581 L 296.03298,46.563 L 296.02798,46.198 L 289.27698,46.203 L 289.13198,43.507 L 291.26498,43.512 L 291.91298,43.539 L 293.48998,43.553 L 297.02898,43.525"
     id="Pennington, MN"/>
  <path
     style="fill:#d0d0d0;stroke:#000000"
     d="M 283.42598,38.734 L 290.13798,38.784 L 296.93398,38.856 L 296.93398,40.515 L 296.94798,41.065 L 297.02398,41.069 L 297.02898,43.525 L 293.48998,43.553 L 291.91298,43.539 L 291.26498,43.512 L 289.13198,43.507 L 283.50298,43.472 L 283.50798,43.21 L 283.79198,42.115 L 283.73698,39.041 L 283.53498,38.793 L 283.46698,38.757 L 283.42598,38.734"
     id="Marshall, MN"/>
  <path
     style="fill:#d0d0d0;stroke:#000000"
     d="M 289.13198,43.507 L 289.27698,46.203 L 289.27698,47.686 L 290.41298,48.807 L 294.91998,48.807 L 296.03798,47.681 L 296.03298,46.563 L 297.14198,46.581 L 297.18698,49.709 L 297.27798,49.916 L 297.41198,49.916 L 297.41198,52.134 L 292.90098,52.157 L 285.98198,52.125 L 285.67998,49.903 L 284.54498,47.311 L 283.70598,44.287 L 283.50298,43.503 L 283.50298,43.472 L 289.13198,43.507"
     id="Polk, MN"/>
  <path
     style="fill:#d0d0d0;stroke:#000000"
     d="M 292.90098,52.157 L 292.90098,56.614 L 291.77398,56.619 L 286.18498,56.596 L 286.13998,55.478 L 285.98198,52.125 L 292.90098,52.157"
     id="Norman, MN"/>
  <path
     style="fill:#d0d0d0;stroke:#000000"
     d="M 297.41198,52.134 L 297.46198,56.605 L 292.90098,56.614 L 292.90098,52.157 L 297.41198,52.134"
     id="Mahnomen, MN"/>
  <path
     style="fill:#d0d0d0;stroke:#000000"
     d="M 297.14198,46.581 L 297.13298,45.477 L 300.21998,45.463 L 300.54498,47.348 L 300.64398,49.898 L 300.68398,53.234 L 300.83798,56.569 L 297.46198,56.605 L 297.41198,52.134 L 297.41198,49.916 L 297.27798,49.916 L 297.18698,49.709 L 297.14198,46.581"
     id="Clearwater, MN"/>
  <path
     style="fill:#d0d0d0;stroke:#000000"
     d="M 299.18298,38.825 L 300.31498,38.82 L 300.34198,41.042 L 307.12998,40.938 L 307.32798,47.604 L 307.35998,49.678 L 307.42698,51.291 L 307.43198,52.738 L 305.20498,53.216 L 300.68398,53.234 L 300.64398,49.898 L 300.54498,47.348 L 300.21998,45.463 L 297.13298,45.477 L 297.02898,43.525 L 297.02398,41.069 L 296.94798,41.065 L 296.93398,40.515 L 296.93398,38.856 L 299.18298,38.825"
     id="Beltrami, MN"/>
  <path
     style="fill:#d0d0d0;stroke:#000000"
     d="M 336.70498,42.169 L 337.16498,41.786 L 337.93998,41.407 L 338.27398,41.407 L 338.30498,41.416 L 338.34598,41.466 L 338.69298,42.236 L 338.84098,42.66 L 338.84098,42.669 L 339.11998,43.233 L 339.21098,43.318 L 340.78398,43.025 L 344.19898,42.755 L 344.55198,42.737 L 344.94498,42.809 L 345.10098,42.845 L 345.55198,43.025 L 345.79598,43.359 L 345.83998,43.463 L 345.82198,43.638 L 345.86298,43.728 L 346.08898,43.891 L 346.72898,44.197 L 346.93998,44.211 L 347.15598,44.107 L 348.81598,43.801 L 350.26198,43.616 L 350.24898,43.737 L 350.21698,43.773 L 349.72098,44.161 L 349.57698,44.269 L 347.71598,45.364 L 346.52698,46.014 L 345.84998,46.383 L 345.21398,46.658 L 344.43498,46.919 L 343.83498,47.131 L 342.18098,47.825 L 341.36498,48.173 L 339.67898,49.276 L 338.56598,50.201 L 337.26798,51.449 L 337.01198,46.207 L 336.85398,43.791 L 336.70498,42.169"
     id="Cook, MN"/>
  <path
     style="fill:#d0d0d0;stroke:#000000"
     d="M 336.70498,42.169 L 336.85398,43.791 L 337.01198,46.207 L 337.26798,51.449 L 337.07398,51.566 L 336.38998,52.332 L 336.15198,52.612 L 335.06498,54.117 L 333.65298,55.812 L 333.48198,55.996 L 333.12598,56.236 L 332.65298,56.493 L 331.54398,57.633 L 331.26898,57.934 L 330.78598,58.512 L 330.50798,51.075 L 330.29498,48.362 L 330.24098,47.271 L 330.03798,42.381 L 330.52698,42.304 L 330.76498,42.358 L 330.77398,42.372 L 330.80498,42.426 L 330.93098,43.048 L 330.86798,43.328 L 330.83698,43.409 L 330.84098,43.44 L 331.46798,43.624 L 332.81498,43.94 L 334.20398,43.841 L 334.53598,43.783 L 334.73998,43.71 L 334.87398,43.638 L 334.87998,43.638 L 336.70498,42.169"
     id="Lake, MN"/>
  <path
     style="fill:#d0d0d0;stroke:#000000"
     d="M 319.00598,46.739 L 319.00998,47.632 L 319.06498,48.934 L 319.21798,50.417 L 319.33898,53.396 L 319.39298,54.951 L 319.53698,56.754 L 319.56998,57.817 L 313.19998,57.939 L 313.12798,54.419 L 313.04298,54.374 L 312.39798,54.252 L 312.22698,54.239 L 312.22298,54.288 L 312.00698,54.477 L 311.90698,54.532 L 311.66898,54.383 L 310.91098,53.869 L 310.80798,53.761 L 310.73598,53.567 L 310.73598,53.247 L 310.75298,53.211 L 310.72998,52.981 L 310.38798,52.382 L 310.25298,52.26 L 310.04998,52.229 L 308.48198,52.973 L 308.26498,53.099 L 307.71898,52.945 L 307.43198,52.738 L 307.42698,51.291 L 307.35998,49.678 L 307.32798,47.604 L 312.94798,47.483 L 312.93398,46.811 L 319.00598,46.739"
     id="Itasca, MN"/>
  <path
     style="fill:#d0d0d0;stroke:#000000"
     d="M 300.68398,53.234 L 305.20498,53.216 L 305.27798,54.352 L 305.38498,58.773 L 305.40298,61 L 304.27698,61.009 L 300.93698,61.031 L 300.91798,58.805 L 300.85498,58.656 L 300.83798,57.732 L 300.83798,56.569 L 300.68398,53.234"
     id="Hubbard, MN"/>
  <path
     style="fill:#d0d0d0;stroke:#000000"
     d="M 305.20498,53.216 L 307.43198,52.738 L 307.71898,52.945 L 308.26498,53.099 L 308.48198,52.973 L 310.04998,52.229 L 310.25298,52.26 L 310.38798,52.382 L 310.72998,52.981 L 310.75298,53.211 L 310.73598,53.247 L 310.73598,53.567 L 310.80798,53.761 L 310.91098,53.869 L 311.66898,54.383 L 311.90698,54.532 L 312.00698,54.477 L 312.22298,54.288 L 312.22698,54.239 L 312.39798,54.252 L 313.04298,54.374 L 313.12798,54.419 L 313.25898,60.86 L 308.22498,60.928 L 308.21998,62.411 L 308.23798,63.167 L 308.38198,63.781 L 308.46798,67.021 L 308.47698,67.553 L 308.43198,67.688 L 308.35098,67.711 L 308.32898,67.58 L 308.26998,67.485 L 307.57998,67.021 L 307.27798,67.043 L 307.21498,67.152 L 307.03998,67.264 L 306.61498,67.417 L 306.52598,67.395 L 305.79998,67.075 L 305.54698,66.845 L 304.84398,66.593 L 304.41098,66.273 L 304.31298,63.24 L 304.27698,61.009 L 305.40298,61 L 305.38498,58.773 L 305.27798,54.352 L 305.20498,53.216"
     id="Cass, MN"/>
  <path
     style="fill:#d0d0d0;stroke:#000000"
     d="M 304.27698,61.009 L 304.31298,63.24 L 304.41098,66.273 L 304.84398,66.593 L 301.04898,66.634 L 300.93698,62.153 L 300.93698,61.031 L 304.27698,61.009"
     id="Wadena, MN"/>
  <path
     style="fill:#d0d0d0;stroke:#000000"
     d="M 300.83798,56.569 L 300.83798,57.732 L 300.85498,58.656 L 300.91798,58.805 L 300.93698,61.031 L 300.93698,62.153 L 296.73998,62.207 L 291.94098,62.18 L 291.77398,56.619 L 292.90098,56.614 L 297.46198,56.605 L 300.83798,56.569"
     id="Becker, MN"/>
  <path
     style="fill:#d0d0d0;stroke:#000000"
     d="M 291.77398,56.619 L 291.94098,62.18 L 290.98898,63.298 L 286.51398,63.276 L 286.50898,62.554 L 286.68098,59.751 L 286.57198,59.453 L 286.19798,58.227 L 286.18498,56.596 L 291.77398,56.619"
     id="Clay, MN"/>
  <path
     style="fill:#d0d0d0;stroke:#000000"
     d="M 286.51398,63.276 L 290.98898,63.298 L 290.98498,67.778 L 291.12098,67.778 L 291.11098,70.018 L 291.10198,71.136 L 288.29898,71.118 L 288.46598,70.649 L 288.48798,70.568 L 288.50598,70.307 L 288.47898,70.081 L 288.13598,67.377 L 286.89698,64.393 L 286.51398,63.28 L 286.51398,63.276"
     id="Wilkin, MN"/>
  <path
     style="fill:#d0d0d0;stroke:#000000"
     d="M 291.94098,62.18 L 296.73998,62.207 L 300.93698,62.153 L 301.04898,66.634 L 301.16698,70.009 L 295.55898,70.027 L 291.11098,70.018 L 291.12098,67.778 L 290.98498,67.778 L 290.98898,63.298 L 291.94098,62.18"
     id="Otter Tail, MN"/>
  <path
     style="fill:#d0d0d0;stroke:#000000"
     d="M 318.65398,37.342 L 319.58698,37.346 L 325.70298,40.731 L 325.92798,40.574 L 327.72198,40.443 L 327.95198,40.862 L 328.34498,41.682 L 328.38498,41.745 L 328.45698,41.845 L 330.03798,42.381 L 330.24098,47.271 L 330.29498,48.362 L 330.50798,51.075 L 330.78598,58.512 L 330.38198,58.714 L 330.02098,58.98 L 328.51098,60.274 L 328.28098,60.486 L 328.21298,60.571 L 328.27298,60.751 L 328.49798,61.103 L 328.85798,61.531 L 328.95698,61.585 L 328.91098,61.617 L 328.78598,61.563 L 328.27298,61.062 L 328.03298,61.08 L 327.40298,61.509 L 327.35298,61.612 L 327.34398,61.707 L 327.37498,61.788 L 327.37498,61.797 L 327.41998,61.847 L 327.42898,61.856 L 327.43798,62 L 327.31698,62.316 L 327.27598,62.356 L 327.23198,62.383 L 326.96498,62.401 L 326.71698,62.379 L 326.51498,62.239 L 326.37898,60.95 L 324.31498,61.004 L 319.62298,61.153 L 319.56998,57.817 L 319.53698,56.754 L 319.39298,54.951 L 319.33898,53.396 L 319.21798,50.417 L 319.06498,48.934 L 319.00998,47.632 L 319.00598,46.739 L 318.98698,46.248 L 318.88898,45.076 L 318.80198,44.49 L 318.72698,42.259 L 318.70298,40.06 L 318.65398,37.342"
     id="St. Louis, MN"/>
  <path
     style="fill:#d0d0d0;stroke:#000000"
     d="M 319.62298,61.153 L 324.31498,61.004 L 326.37898,60.95 L 326.51498,62.239 L 326.63198,65.398 L 319.82098,65.615 L 319.75398,63.681 L 319.68198,63.379 L 319.65398,62.902 L 319.62798,62.266 L 319.62298,61.153"
     id="Carlton, MN"/>
  <path
     style="fill:#d0d0d0;stroke:#000000"
     d="M 319.82098,65.615 L 326.63198,65.398 L 326.75298,68.743 L 326.77598,69.302 L 326.79398,69.807 L 325.48198,70.626 L 323.60698,71.857 L 323.60398,71.862 L 323.15598,72.254 L 323.04298,72.403 L 322.93098,72.605 L 322.02598,74.417 L 319.31198,74.494 L 319.20298,71.276 L 319.99198,71.244 L 319.93498,68.968 L 319.82098,65.615"
     id="Pine, MN"/>
  <path
     style="fill:#d0d0d0;stroke:#000000"
     d="M 316.54498,69.121 L 319.93498,68.968 L 319.99198,71.244 L 319.20298,71.276 L 319.31198,74.494 L 315.94998,74.543 L 315.86398,72.731 L 315.82898,71.357 L 316.22898,71.343 L 316.58598,70.969 L 316.54498,69.121"
     id="Kanabec, MN"/>
  <path
     style="fill:#d0d0d0;stroke:#000000"
     d="M 319.56998,57.817 L 319.62298,61.153 L 319.62798,62.266 L 319.65398,62.902 L 319.68198,63.379 L 319.75398,63.681 L 319.82098,65.615 L 319.93498,68.968 L 316.54498,69.121 L 316.55398,68.783 L 316.52698,67.936 L 315.59798,67.95 L 313.24998,68.057 L 313.14698,67.99 L 313.11898,67.963 L 313.11498,67.932 L 313.01198,63.677 L 313.28598,62.735 L 313.25898,60.86 L 313.19998,57.939 L 319.56998,57.817"
     id="Aitkin, MN"/>
  <path
     style="fill:#d0d0d0;stroke:#000000"
     d="M 308.35098,67.711 L 308.43198,67.688 L 308.47698,67.553 L 308.46798,67.021 L 308.38198,63.781 L 308.23798,63.167 L 308.21998,62.411 L 308.22498,60.928 L 313.25898,60.86 L 313.28598,62.735 L 313.01198,63.677 L 313.11498,67.932 L 313.11898,67.963 L 313.14698,67.99 L 313.24998,68.057 L 313.14698,69.175 L 308.08498,69.27 L 308.07098,68.842 L 308.07998,68.161 L 308.35098,67.711"
     id="Crow Wing, MN"/>
  <path
     style="fill:#d0d0d0;stroke:#000000"
     d="M 305.54698,66.845 L 305.79998,67.075 L 306.52598,67.395 L 306.61498,67.417 L 307.03998,67.264 L 307.21498,67.152 L 307.27798,67.043 L 307.57998,67.021 L 308.26998,67.485 L 308.32898,67.58 L 308.35098,67.711 L 308.07998,68.161 L 308.07098,68.842 L 308.08498,69.27 L 313.14698,69.175 L 313.19998,71.407 L 313.24598,71.407 L 313.59298,72.159 L 313.66498,73.466 L 311.44298,73.493 L 308.35098,73.578 L 309.09398,74.169 L 305.73698,74.237 L 305.54698,66.845"
     id="Morrison, MN"/>
  <path
     style="fill:#d0d0d0;stroke:#000000"
     d="M 304.84398,66.593 L 305.54698,66.845 L 305.73698,74.237 L 301.26198,74.3 L 301.16698,70.009 L 301.04898,66.634 L 304.84398,66.593"
     id="Todd, MN"/>
  <path
     style="fill:#d0d0d0;stroke:#000000"
     d="M 301.16698,70.009 L 301.26198,74.3 L 301.26198,74.485 L 295.67198,74.503 L 295.66798,72.267 L 295.56898,72.267 L 295.55898,70.027 L 301.16698,70.009"
     id="Douglas, MN"/>
  <path
     style="fill:#d0d0d0;stroke:#000000"
     d="M 291.11098,70.018 L 295.55898,70.027 L 295.56898,72.267 L 295.66798,72.267 L 295.67198,74.503 L 291.20198,74.507 L 291.10198,71.136 L 291.11098,70.018"
     id="Grant, MN"/>
  <path
     style="fill:#d0d0d0;stroke:#000000"
     d="M 288.29898,71.118 L 291.10198,71.136 L 291.20198,74.507 L 291.20198,76.752 L 285.92798,76.711 L 285.76598,76.504 L 285.72998,76.454 L 285.85598,76.022 L 285.88698,75.95 L 285.90098,75.936 L 285.91898,75.913 L 285.93298,75.895 L 286.75698,75.233 L 287.06898,75.03 L 287.41598,74.841 L 287.59998,74.656 L 288.23098,73.719 L 288.24498,73.687 L 288.25398,73.669 L 288.26298,73.642 L 288.27198,73.578 L 288.29398,73.461 L 288.32598,73.182 L 288.36598,72.84 L 288.37098,72.826 L 288.37098,72.799 L 288.42098,72.236 L 288.29898,71.118"
     id="Traverse, MN"/>
  <path
     style="fill:#d0d0d0;stroke:#000000"
     d="M 285.92798,76.711 L 291.20198,76.752 L 291.30898,76.752 L 291.29998,78.978 L 292.43198,78.992 L 292.54898,82.025 L 291.91298,81.804 L 290.98898,81.431 L 290.90398,81.245 L 290.51698,81.069 L 289.37198,80.826 L 289.22298,80.082 L 289.05098,79.686 L 288.75398,79.447 L 287.88398,79.023 L 286.55898,77.554 L 285.92798,76.711"
     id="Big Stone, MN"/>
  <path
     style="fill:#d0d0d0;stroke:#000000"
     d="M 295.78398,78.983 L 300.25698,78.956 L 300.35998,82.314 L 293.15798,82.341 L 292.54898,82.025 L 292.43198,78.992 L 295.78398,78.983"
     id="Swift, MN"/>
  <path
     style="fill:#d0d0d0;stroke:#000000"
     d="M 295.67198,74.503 L 295.68098,76.752 L 295.77598,76.752 L 295.78398,78.983 L 292.43198,78.992 L 291.29998,78.978 L 291.30898,76.752 L 291.20198,76.752 L 291.20198,74.507 L 295.67198,74.503"
     id="Stevens, MN"/>
  <path
     style="fill:#d0d0d0;stroke:#000000"
     d="M 301.26198,74.485 L 301.27898,76.724 L 301.35598,76.724 L 301.37398,78.952 L 300.25698,78.956 L 295.78398,78.983 L 295.77598,76.752 L 295.68098,76.752 L 295.67198,74.503 L 301.26198,74.485"
     id="Pope, MN"/>
  <path
     style="fill:#d0d0d0;stroke:#000000"
     d="M 305.73698,74.237 L 309.09398,74.169 L 310.25298,76.932 L 311.21798,78.676 L 309.31098,80.497 L 308.19698,80.533 L 307.66998,79.983 L 306.80898,79.993 L 304.73198,80.024 L 304.71698,78.906 L 301.37398,78.952 L 301.35598,76.724 L 301.27898,76.724 L 301.26198,74.485 L 301.26198,74.3 L 305.73698,74.237"
     id="Stearns, MN"/>
  <path
     style="fill:#d0d0d0;stroke:#000000"
     d="M 309.09398,74.169 L 308.35098,73.578 L 311.44298,73.493 L 313.66498,73.466 L 313.78198,76.846 L 310.25298,76.932 L 309.09398,74.169"
     id="Benton, MN"/>
  <path
     style="fill:#d0d0d0;stroke:#000000"
     d="M 313.24998,68.057 L 315.59798,67.95 L 316.52698,67.936 L 316.55398,68.783 L 316.54498,69.121 L 316.58598,70.969 L 316.22898,71.343 L 315.82898,71.357 L 315.86398,72.731 L 315.94998,74.543 L 316.03498,76.801 L 313.78198,76.846 L 313.66498,73.466 L 313.59298,72.159 L 313.24598,71.407 L 313.19998,71.407 L 313.14698,69.175 L 313.24998,68.057"
     id="Mille Lacs, MN"/>
  <path
     style="fill:#d0d0d0;stroke:#000000"
     d="M 319.31198,74.494 L 319.37498,76.721 L 320.46598,76.882 L 320.54698,78.568 L 319.24398,78.578 L 316.63898,78.658 L 316.09398,78.658 L 316.03498,76.801 L 315.94998,74.543 L 319.31198,74.494"
     id="Isanti, MN"/>
  <path
     style="fill:#d0d0d0;stroke:#000000"
     d="M 322.02598,74.417 L 321.65898,75.539 L 321.64698,75.743 L 321.65098,75.828 L 321.67398,76.17 L 321.70498,76.423 L 321.82698,76.517 L 322.25998,76.59 L 322.43998,76.562 L 323.15298,76.946 L 323.59798,77.788 L 323.77798,78.699 L 323.43598,79.573 L 323.19598,79.87 L 323.18398,79.88 L 323.07498,79.979 L 320.59698,80.051 L 320.54698,78.568 L 320.46598,76.882 L 319.37498,76.721 L 319.31198,74.494 L 322.02598,74.417"
     id="Chisago, MN"/>
  <path
     style="fill:#d0d0d0;stroke:#000000"
     d="M 318.80198,83.481 L 320.65098,82.282 L 320.75498,85.288 L 319.30798,85.365 L 318.80198,83.481"
     id="Ramsey, MN"/>
  <path
     style="fill:#d0d0d0;stroke:#000000"
     d="M 316.09398,78.658 L 316.63898,78.658 L 319.24398,78.578 L 320.54698,78.568 L 320.59698,80.051 L 320.65098,82.282 L 318.80198,83.481 L 316.12998,80.84 L 316.09398,78.658"
     id="Anoka, MN"/>
  <path
     style="fill:#d0d0d0;stroke:#000000"
     d="M 316.03498,76.801 L 316.09398,78.658 L 316.12998,80.84 L 316.04498,80.831 L 315.48598,80.258 L 314.68298,80.236 L 313.91698,80.263 L 313.78598,80.231 L 312.87098,79.708 L 311.21798,78.676 L 310.25298,76.932 L 313.78198,76.846 L 316.03498,76.801"
     id="Sherburne, MN"/>
  <path
     style="fill:#d0d0d0;stroke:#000000"
     d="M 309.31098,80.497 L 311.21798,78.676 L 312.87098,79.708 L 313.78598,80.231 L 313.91698,80.263 L 314.68298,80.236 L 315.48598,80.258 L 316.04498,80.831 L 314.95798,81.385 L 314.83198,81.489 L 314.01598,83.043 L 313.89898,84.35 L 311.65398,84.391 L 309.42798,84.423 L 309.31098,80.497"
     id="Wright, MN"/>
  <path
     style="fill:#d0d0d0;stroke:#000000"
     d="M 304.73198,80.024 L 306.80898,79.993 L 307.66998,79.983 L 308.19698,80.533 L 309.31098,80.497 L 309.42798,84.423 L 307.19298,85.59 L 304.85298,85.626 L 304.73198,80.024"
     id="Meeker, MN"/>
  <path
     style="fill:#d0d0d0;stroke:#000000"
     d="M 300.25698,78.956 L 301.37398,78.952 L 304.71698,78.906 L 304.73198,80.024 L 304.85298,85.626 L 300.36898,85.681 L 300.35998,82.314 L 300.25698,78.956"
     id="Kandiyohi, MN"/>
  <path
     style="fill:#d0d0d0;stroke:#000000"
     d="M 293.15798,82.341 L 300.35998,82.314 L 300.36898,85.681 L 298.21898,85.703 L 298.23298,87.479 L 295.89698,85.126 L 293.15798,82.341"
     id="Chippewa, MN"/>
  <path
     style="fill:#d0d0d0;stroke:#000000"
     d="M 320.59698,80.051 L 323.07498,79.979 L 322.93598,81.101 L 322.74598,82.8 L 322.77398,83.224 L 322.99798,83.702 L 323.19398,84.608 L 323.12398,85.581 L 322.80498,87.105 L 320.75498,85.288 L 320.65098,82.282 L 320.59698,80.051"
     id="Washington, MN"/>
  <path
     style="fill:#d0d0d0;stroke:#000000"
     d="M 319.30798,85.365 L 320.75498,85.288 L 322.80498,87.105 L 323.45898,87.483 L 323.49398,88.574 L 322.98598,89.701 L 321.82198,89.741 L 320.73198,90.147 L 320.74498,90.705 L 318.48698,89.84 L 318.48298,88.718 L 318.11698,88.727 L 317.99598,87.61 L 317.95498,86.663 L 319.30798,85.365"
     id="Dakota, MN"/>
  <path
     style="fill:#d0d0d0;stroke:#000000"
     d="M 316.12998,80.84 L 318.80198,83.481 L 319.30798,85.365 L 317.95498,86.663 L 316.20198,86.536 L 316.17498,85.414 L 313.91698,85.473 L 313.89898,84.35 L 314.01598,83.043 L 314.83198,81.489 L 314.95798,81.385 L 316.04498,80.831 L 316.12998,80.84"
     id="Hennepin, MN"/>
  <path
     style="fill:#d0d0d0;stroke:#000000"
     d="M 316.20198,86.536 L 317.95498,86.663 L 317.99598,87.61 L 318.11698,88.727 L 318.48298,88.718 L 318.48698,89.84 L 316.25698,89.904 L 312.70498,89.994 L 313.98498,88.709 L 314.02598,88.723 L 314.26898,88.623 L 315.03998,88.019 L 315.26498,87.717 L 315.20198,87.6 L 315.21098,87.411 L 315.67398,86.677 L 316.01298,86.536 L 316.20198,86.536"
     id="Scott, MN"/>
  <path
     style="fill:#d0d0d0;stroke:#000000"
     d="M 311.65398,84.391 L 313.89898,84.35 L 313.91698,85.473 L 316.17498,85.414 L 316.20198,86.536 L 316.01298,86.536 L 315.67398,86.677 L 315.21098,87.411 L 315.20198,87.6 L 315.26498,87.717 L 315.03998,88.019 L 314.26898,88.623 L 314.02598,88.723 L 313.98498,88.709 L 311.73998,87.763 L 311.65398,84.391"
     id="Carver, MN"/>
  <path
     style="fill:#d0d0d0;stroke:#000000"
     d="M 309.42798,84.423 L 311.65398,84.391 L 311.73998,87.763 L 310.62298,87.785 L 309.50898,87.925 L 309.51898,88.934 L 307.62098,88.971 L 307.28698,88.975 L 307.26898,87.848 L 307.19298,85.59 L 309.42798,84.423"
     id="McLeod, MN"/>
  <path
     style="fill:#d0d0d0;stroke:#000000"
     d="M 311.73998,87.763 L 313.98498,88.709 L 312.70498,89.994 L 312.55598,91.116 L 306.15998,91.238 L 306.09698,90.124 L 306.06098,87.87 L 307.26898,87.848 L 307.28698,88.975 L 307.62098,88.971 L 309.51898,88.934 L 309.50898,87.925 L 310.62298,87.785 L 311.73998,87.763"
     id="Sibley, MN"/>
  <path
     style="fill:#d0d0d0;stroke:#000000"
     d="M 307.19298,85.59 L 307.26898,87.848 L 306.06098,87.87 L 306.09698,90.124 L 306.15998,91.238 L 304.71698,91.251 L 303.92898,90.724 L 299.36398,88.182 L 298.23298,87.479 L 298.21898,85.703 L 300.36898,85.681 L 304.85298,85.626 L 307.19298,85.59"
     id="Renville, MN"/>
  <path
     style="fill:#d0d0d0;stroke:#000000"
     d="M 292.54898,82.025 L 293.15798,82.341 L 295.89698,85.126 L 295.89698,85.703 L 294.87998,86.816 L 289.35798,86.807 L 289.37198,80.826 L 290.51698,81.069 L 290.90398,81.245 L 290.98898,81.431 L 291.91298,81.804 L 292.54898,82.025"
     id="Lac qui Parle, MN"/>
  <path
     style="fill:#d0d0d0;stroke:#000000"
     d="M 289.35798,86.807 L 294.87998,86.816 L 295.89698,85.703 L 295.89698,85.126 L 298.23298,87.479 L 299.36398,88.182 L 299.37298,90.205 L 297.21798,90.21 L 297.13298,89.079 L 292.63898,89.079 L 289.34398,89.061 L 289.35798,86.807"
     id="Yellow Medicine, MN"/>
  <path
     style="fill:#d0d0d0;stroke:#000000"
     d="M 292.63898,89.079 L 292.76498,94.685 L 289.30798,94.672 L 289.33598,90.192 L 289.34398,89.061 L 292.63898,89.079"
     id="Lincoln, MN"/>
  <path
     style="fill:#d0d0d0;stroke:#000000"
     d="M 297.24898,94.69 L 292.90498,94.685 L 292.76498,94.685 L 292.63898,89.079 L 297.13298,89.079 L 297.21798,90.21 L 297.24898,94.69"
     id="Lyon, MN"/>
  <path
     style="fill:#d0d0d0;stroke:#000000"
     d="M 303.92898,90.724 L 303.96098,93.514 L 301.73498,93.545 L 301.72998,94.667 L 298.46198,94.677 L 297.24898,94.69 L 297.21798,90.21 L 299.37298,90.205 L 299.36398,88.182 L 303.92898,90.724"
     id="Redwood, MN"/>
  <path
     style="fill:#d0d0d0;stroke:#000000"
     d="M 304.71698,91.251 L 305.01198,91.341 L 305.40298,91.535 L 307.35498,92.522 L 307.46298,92.599 L 307.68398,92.815 L 308.52698,93.681 L 308.58598,95.695 L 304.04698,95.767 L 301.72998,94.667 L 301.73498,93.545 L 303.96098,93.514 L 303.92898,90.724 L 304.71698,91.251"
     id="Brown, MN"/>
  <path
     style="fill:#d0d0d0;stroke:#000000"
     d="M 312.55598,91.116 L 312.27698,92.243 L 311.83498,93.563 L 311.85698,93.942 L 311.96098,94.762 L 311.94698,94.852 L 311.55898,95.041 L 311.47798,95.051 L 311.20898,94.969 L 310.93298,94.811 L 310.81998,94.722 L 308.90498,93.811 L 308.52698,93.681 L 307.68398,92.815 L 307.46298,92.599 L 307.35498,92.522 L 305.40298,91.535 L 305.01198,91.341 L 304.71698,91.251 L 306.15998,91.238 L 312.55598,91.116"
     id="Nicollet, MN"/>
  <path
     style="fill:#d0d0d0;stroke:#000000"
     d="M 312.70498,89.994 L 316.25698,89.904 L 316.36398,94.397 L 314.11998,94.451 L 311.85698,93.942 L 311.83498,93.563 L 312.27698,92.243 L 312.55598,91.116 L 312.70498,89.994"
     id="Le Sueur, MN"/>
  <path
     style="fill:#d0d0d0;stroke:#000000"
     d="M 316.25698,89.904 L 318.48698,89.84 L 320.74498,90.705 L 320.83998,94.262 L 320.78998,94.262 L 317.45998,94.361 L 316.36398,94.397 L 316.25698,89.904"
     id="Rice, MN"/>
  <path
     style="fill:#d0d0d0;stroke:#000000"
     d="M 323.45898,87.483 L 324.40898,88.29 L 324.50798,88.416 L 324.53098,88.542 L 325.19798,89.205 L 325.34298,89.272 L 325.73498,89.318 L 326.97398,89.367 L 327.13198,89.403 L 327.23598,89.453 L 327.32498,89.53 L 327.35698,89.579 L 328.08798,90.67 L 326.35198,90.728 L 325.28798,91.887 L 325.36398,94.136 L 324.18498,94.163 L 320.83998,94.262 L 320.74498,90.705 L 320.73198,90.147 L 321.82198,89.741 L 322.98598,89.701 L 323.49398,88.574 L 323.45898,87.483"
     id="Goodhue, MN"/>
  <path
     style="fill:#d0d0d0;stroke:#000000"
     d="M 328.08798,90.67 L 329.56598,91.233 L 331.71998,93.901 L 329.76898,95.096 L 327.55098,95.182 L 327.50098,94.055 L 325.36398,94.136 L 325.28798,91.887 L 326.35198,90.728 L 328.08798,90.67"
     id="Wabasha, MN"/>
  <path
     style="fill:#d0d0d0;stroke:#000000"
     d="M 331.71998,93.901 L 334.62698,95.956 L 335.93898,96.407 L 337.28598,98.12 L 333.14398,98.318 L 329.90798,98.453 L 329.76898,95.096 L 331.71998,93.901"
     id="Winona, MN"/>
  <path
     style="fill:#d0d0d0;stroke:#000000"
     d="M 324.18498,94.163 L 325.36398,94.136 L 327.50098,94.055 L 327.55098,95.182 L 329.76898,95.096 L 329.90798,98.453 L 326.48298,98.76 L 324.23798,98.652 L 324.18498,94.163"
     id="Olmsted, MN"/>
  <path
     style="fill:#d0d0d0;stroke:#000000"
     d="M 320.83998,94.262 L 324.18498,94.163 L 324.23798,98.652 L 320.93498,98.765 L 320.78998,94.262 L 320.83998,94.262"
     id="Dodge, MN"/>
  <path
     style="fill:#d0d0d0;stroke:#000000"
     d="M 320.78998,94.262 L 320.93498,98.765 L 320.89998,98.765 L 317.58098,98.864 L 317.45998,94.361 L 320.78998,94.262"
     id="Steele, MN"/>
  <path
     style="fill:#d0d0d0;stroke:#000000"
     d="M 316.36398,94.397 L 317.45998,94.361 L 317.58098,98.864 L 315.33698,98.922 L 314.22798,98.949 L 314.11998,94.451 L 316.36398,94.397"
     id="Waseca, MN"/>
  <path
     style="fill:#d0d0d0;stroke:#000000"
     d="M 314.11998,94.451 L 314.22798,98.949 L 309.77498,99.049 L 308.64398,99.066 L 308.58598,95.695 L 308.52698,93.681 L 308.90498,93.811 L 310.81998,94.722 L 310.93298,94.811 L 311.20898,94.969 L 311.47798,95.051 L 311.55898,95.041 L 311.94698,94.852 L 311.96098,94.762 L 311.85698,93.942 L 314.11998,94.451"
     id="Blue Earth, MN"/>
  <path
     style="fill:#d0d0d0;stroke:#000000"
     d="M 304.04698,95.767 L 308.58598,95.695 L 308.64398,99.066 L 304.13698,99.129 L 304.09198,99.129 L 304.04698,95.767"
     id="Watonwan, MN"/>
  <path
     style="fill:#d0d0d0;stroke:#000000"
     d="M 298.46198,94.677 L 301.72998,94.667 L 304.04698,95.767 L 304.09198,99.129 L 298.57898,99.183 L 298.48498,99.183 L 298.46198,94.677"
     id="Cottonwood, MN"/>
  <path
     style="fill:#d0d0d0;stroke:#000000"
     d="M 297.24898,94.69 L 298.46198,94.677 L 298.48498,99.183 L 293.00898,99.179 L 292.89598,99.179 L 292.90498,94.685 L 297.24898,94.69"
     id="Murray, MN"/>
  <path
     style="fill:#d0d0d0;stroke:#000000"
     d="M 289.30798,94.672 L 292.76498,94.685 L 292.90498,94.685 L 292.89598,99.179 L 289.28098,99.161 L 289.30798,94.672"
     id="Pipestone, MN"/>
  <path
     style="fill:#d0d0d0;stroke:#000000"
     d="M 289.28098,99.161 L 292.89598,99.179 L 293.00898,99.179 L 292.99898,103.695 L 289.26298,103.682 L 289.28098,99.161"
     id="Rock, MN"/>
  <path
     style="fill:#d0d0d0;stroke:#000000"
     d="M 293.00898,99.179 L 298.48498,99.183 L 298.57898,99.183 L 298.58898,103.677 L 294.78898,103.7 L 292.99898,103.695 L 293.00898,99.179"
     id="Nobles, MN"/>
  <path
     style="fill:#d0d0d0;stroke:#000000"
     d="M 304.09198,99.129 L 304.13698,99.129 L 304.19098,103.628 L 303.62298,103.637 L 299.21098,103.677 L 298.58898,103.677 L 298.57898,99.183 L 304.09198,99.129"
     id="Jackson, MN"/>
  <path
     style="fill:#d0d0d0;stroke:#000000"
     d="M 309.77498,99.049 L 309.85698,103.542 L 308.03098,103.573 L 304.19098,103.628 L 304.13698,99.129 L 308.64398,99.066 L 309.77498,99.049"
     id="Martin, MN"/>
  <path
     style="fill:#d0d0d0;stroke:#000000"
     d="M 315.33698,98.922 L 315.44498,103.433 L 312.43898,103.501 L 309.85698,103.542 L 309.77498,99.049 L 314.22798,98.949 L 315.33698,98.922"
     id="Faribault, MN"/>
  <path
     style="fill:#d0d0d0;stroke:#000000"
     d="M 320.89998,98.765 L 321.04298,103.276 L 316.86098,103.397 L 315.44498,103.433 L 315.33698,98.922 L 317.58098,98.864 L 320.89998,98.765"
     id="Freeborn, MN"/>
  <path
     style="fill:#d0d0d0;stroke:#000000"
     d="M 324.23798,98.652 L 326.48298,98.76 L 326.64598,103.073 L 325.67198,103.109 L 321.27298,103.266 L 321.04298,103.276 L 320.89998,98.765 L 320.93498,98.765 L 324.23798,98.652"
     id="Mower, MN"/>
</svg>
