<?xml version="1.0" encoding="UTF-8" standalone="no"?>
<svg xmlns:dc="http://purl.org/dc/elements/1.1/"
   xmlns:cc="http://creativecommons.org/ns#"
   xmlns:rdf="http://www.w3.org/1999/02/22-rdf-syntax-ns#"
   xmlns:svg="http://www.w3.org/2000/svg"
   xmlns="http://www.w3.org/2000/svg"
   xmlns:xlink="http://www.w3.org/1999/xlink"
   xmlns:sodipodi="http://sodipodi.sourceforge.net/DTD/sodipodi-0.dtd"
   xmlns:inkscape="http://www.inkscape.org/namespaces/inkscape"
   id="svg2403"
   sodipodi:version="0.32"
   inkscape:version="0.46"
   width="541.47876"
   height="541.47876"
   xml:space="preserve"
   sodipodi:docname="United_States_(orthographic_projection) (1).svg"
   inkscape:output_extension="org.inkscape.output.svg.inkscape"
   version="1.0">

  <defs
     id="defs9561"/>
  <path
     style="fill:#d0d0d0;stroke:#000000;stroke-opacity:1;stroke-width:0.1;"
     d="M 62.678745,259.31235 L 63.560745,258.43135 L 64.220745,257.99135 L 64.439745,258.43135 L 64.000745,258.65135 L 64.439745,258.65135 L 66.643745,257.99135 L 68.626745,255.56635 L 70.388745,256.44835 L 70.388745,256.89035 L 69.727745,257.54935 L 69.727745,258.21235 L 70.388745,257.99135 L 70.829745,256.89035 L 71.269745,256.44835 L 71.930745,257.10835 L 72.150745,257.99135 L 72.811745,258.21235 L 73.030745,257.77135 L 74.131745,257.54935 L 75.894745,257.54935 L 76.113745,257.77135 L 75.673745,258.43135 L 75.673745,258.65135 L 76.996745,258.87235 L 76.774745,259.53235 L 77.656745,259.53235 L 78.757745,258.87235 L 81.180745,258.65135 L 82.722745,259.09235 L 83.386745,259.09235 L 84.044745,259.31235 L 84.267745,259.53235 L 85.148745,259.53235 L 86.249745,259.31235 L 87.572745,259.31235 L 89.114745,259.75435 L 89.554745,259.53235 L 90.436745,258.87235 L 90.655745,258.65135 L 91.096745,258.21235 L 92.639745,258.43135 L 96.163745,259.53235 L 97.264745,263.05835 L 97.925745,265.26135 L 88.893745,267.46435 L 89.334745,269.88635 L 87.572745,270.32735 L 82.945745,271.21135 L 82.722745,271.21135 L 72.371745,272.31135 L 69.947745,272.31135 L 69.947745,271.87035 L 68.186745,271.87035 L 68.186745,271.42935 L 66.423745,271.42935 L 64.661745,271.64935 L 63.338745,271.64935 L 63.338745,271.21135 L 62.678745,271.21135 L 62.678745,271.42935 L 60.696745,271.42935 L 60.255745,271.21135 L 60.034745,271.21135 L 60.034745,271.42935 L 59.154745,271.42935 L 58.932745,270.98935 L 57.831745,270.98935 L 57.831745,271.42935 L 57.389745,271.42935 L 54.304745,271.21135 L 54.304745,272.08935 L 52.762745,272.08935 L 51.441745,271.42935 L 50.780745,270.54735 L 51.220745,269.22735 L 51.441745,267.68335 L 52.983745,267.90535 L 54.967745,267.68335 L 55.626745,267.46435 L 56.948745,265.92135 L 57.611745,263.93935 L 58.932745,261.95735 L 59.814745,261.07435 L 60.474745,261.29735 L 61.356745,260.85535 L 62.678745,259.31235"
     id="02185"
     inkscape:label="North Slope, AK"/>
  <path
     style="fill:#d0d0d0;stroke:#000000;stroke-opacity:1;stroke-width:0.1;"
     d="M 74.350745,278.69935 L 73.911745,278.69935 L 73.030745,279.13935 L 73.251745,279.58035 L 71.930745,279.58035 L 71.930745,280.90135 L 71.048745,281.12235 L 71.048745,280.68235 L 70.608745,280.24335 L 69.727745,280.24335 L 69.727745,281.12235 L 68.845745,281.12235 L 68.845745,280.24335 L 67.084745,280.24335 L 67.084745,282.22535 L 64.881745,282.22535 L 64.881745,283.10535 L 63.560745,283.10535 L 63.560745,285.30835 L 63.119745,285.30835 L 63.119745,285.75035 L 62.678745,285.75035 L 54.967745,285.52935 L 54.967745,284.64735 L 54.745745,284.64735 L 54.526745,284.42735 L 54.526745,283.76735 L 54.085745,283.54635 L 54.085745,281.78435 L 53.863745,279.58035 L 54.745745,279.58035 L 55.186745,279.80035 L 54.745745,281.34235 L 54.967745,282.22535 L 58.932745,282.66335 L 60.034745,281.56335 L 60.696745,281.56335 L 60.474745,281.12235 L 59.814745,280.68235 L 59.154745,280.24335 L 58.269745,279.13935 L 57.831745,278.92035 L 57.611745,278.25935 L 57.831745,278.03835 L 58.269745,278.03835 L 58.932745,279.58035 L 59.814745,280.46135 L 60.255745,280.24335 L 59.814745,280.02235 L 59.154745,279.13935 L 59.594745,277.81835 L 59.814745,278.03835 L 59.814745,277.81835 L 59.154745,277.37835 L 58.052745,277.59735 L 57.169745,277.59735 L 55.626745,276.93735 L 54.967745,274.51435 L 52.762745,272.08935 L 54.304745,272.08935 L 54.304745,271.21135 L 57.389745,271.42935 L 57.831745,271.42935 L 57.831745,270.98935 L 58.932745,270.98935 L 59.154745,271.42935 L 60.034745,271.42935 L 60.034745,271.21135 L 60.255745,271.21135 L 60.696745,271.42935 L 62.678745,271.42935 L 62.678745,271.21135 L 63.338745,271.21135 L 63.338745,271.64935 L 64.661745,271.64935 L 66.423745,271.42935 L 68.186745,271.42935 L 68.186745,271.87035 L 69.947745,271.87035 L 69.947745,272.31135 L 71.710745,272.31135 L 71.710745,273.41235 L 72.150745,273.41235 L 72.150745,273.85335 L 73.030745,274.73535 L 73.030745,276.05535 L 73.911745,276.05535 L 74.350745,276.49635 L 74.572745,277.81835 L 74.350745,278.69935"
     id="02188"
     inkscape:label="Northwest Arctic, AK"/>
    <g style="fill:#d0d0d0;stroke:#000000" id="02130" inkscape:label="Ketchikan Gateway, AK">
     <path d="M 140.66674,317.91335 L 141.54674,316.81335 L 143.31075,318.35435 L 143.75074,319.67535 L 143.52974,320.33735 L 142.64874,320.55735 L 141.10674,320.11635 L 141.10674,319.67535 L 141.32774,319.23535 L 140.66674,317.91335"/>
     <path d="M 141.32774,320.11635 L 141.98774,320.55735 L 142.20874,321.43935 L 141.54674,320.77735 L 141.32774,320.11635"/>
     </g>

</svg>
